<?xml version="1.0" encoding="UTF-8" standalone="no"?>
<!-- Creator: fig2dev Version 3.2.8b -->
<!-- CreationDate: 2023-04-12 09:34:10 -->
<!-- Magnification: 1.05 -->
<svg	xmlns="http://www.w3.org/2000/svg"
	xmlns:xlink="http://www.w3.org/1999/xlink"
	width="631pt" height="659pt"
	viewBox="-348 428 10012 10461">
<g fill="none">
<!-- Circle -->
<defs>
<circle cx="4680" cy="5040" r="1530" id="p0"/>
<pattern id="tile0" patternUnits="userSpaceOnUse"
	x="0" y="0" width="134" height="134">
<g stroke-width="7.5" stroke="#000000" fill="none">
<path d="M -4,63 71,138 M 63,-4 138,71"/>
</g>
</pattern>
</defs>
<use xlink:href="#p0" fill="#ffffff"/>
<use xlink:href="#p0" fill="url(#tile0)"
	stroke="#000000" stroke-width="8px"/>
<!-- Circle -->
<circle cx="4680" cy="5040" r="1710"
	stroke="#000000" stroke-width="8px"/>
<!-- Circle -->
<circle cx="4680" cy="5040" r="1980"
	stroke="#000000" stroke-width="8px"/>
<!-- Circle -->
<circle cx="4680" cy="5040" r="2340"
	stroke="#000000" stroke-width="8px"/>
<!-- Circle -->
<circle cx="4680" cy="5040" r="2610"
	stroke="#000000" stroke-width="8px"/>
<!-- Circle -->
<circle cx="4680" cy="5040" r="2880"
	stroke="#000000" stroke-width="8px"/>
<!-- Circle -->
<circle cx="4680" cy="5040" r="3330"
	stroke="#000000" stroke-width="8px"/>
<!-- Line -->
<polygon points=" 630,7110 644,7274 658,7431 673,7579 689,7716 704,7844 719,7960 734,8066 748,8161
 761,8245 774,8319 786,8384 797,8440 808,8487 817,8526 826,8558 834,8584 842,8603
 849,8618 856,8628 862,8635 868,8638 874,8639 879,8638 885,8636 891,8633 897,8631
 903,8628 910,8627 918,8627 926,8629 935,8634 945,8641 956,8652 968,8667 982,8686
 997,8709 1013,8737 1032,8770 1051,8807 1073,8850 1097,8897 1122,8949 1149,9004
 1177,9063 1207,9125 1239,9188 1272,9252 1305,9315 1353,9400 1400,9478 1446,9549
 1489,9611 1528,9666 1565,9712 1597,9751 1625,9782 1650,9807 1672,9825 1690,9839
 1706,9847 1719,9852 1731,9854 1741,9853 1750,9851 1759,9847 1768,9844 1777,9840
 1787,9837 1799,9835 1813,9835 1830,9837 1849,9842 1872,9851 1899,9862 1929,9878
 1964,9897 2003,9921 2046,9948 2093,9978 2143,10011 2196,10045 2250,10080 2311,10118
 2370,10153 2424,10186 2473,10214 2516,10239 2553,10259 2584,10276 2609,10290
 2628,10301 2643,10309 2654,10314 2662,10318 2667,10321 2671,10323 2674,10324
 2677,10325 2681,10326 2687,10327 2695,10330 2707,10334 2724,10340 2745,10347
 2773,10357 2807,10369 2848,10383 2896,10400 2951,10419 3012,10440 3079,10462
 3150,10485 3210,10504 3270,10522 3329,10540 3385,10557 3438,10574 3487,10592
 3532,10609 3574,10625 3612,10642 3646,10659 3677,10676 3706,10692 3731,10709
 3754,10725 3775,10741 3795,10758 3814,10773 3833,10789 3851,10804 3869,10818
 3888,10832 3909,10844 3930,10856 3954,10866 3979,10875 4007,10882 4038,10886
 4071,10888 4107,10886 4146,10882 4187,10873 4230,10860 4275,10842 4321,10818
 4366,10790 4410,10755 4447,10719 4481,10680 4513,10638 4541,10594 4567,10549
 4589,10505 4609,10460 4627,10417 4642,10374 4655,10333 4665,10292 4675,10254
 4682,10216 4688,10180 4693,10145 4697,10110 4701,10077 4703,10044 4705,10011
 4706,9979 4707,9946 4708,9913 4709,9880 4709,9846 4709,9811 4710,9775 4710,9737
 4710,9698 4711,9657 4711,9615 4711,9571 4711,9525 4710,9478 4709,9429 4708,9379
 4705,9329 4701,9278 4696,9229 4689,9181 4680,9135 4665,9080 4646,9032 4626,8992
 4605,8960 4584,8935 4564,8917 4544,8905 4525,8899 4507,8898 4491,8900 4475,8906
 4460,8915 4446,8926 4432,8938 4417,8951 4403,8965 4388,8979 4372,8992 4355,9004
 4336,9015 4315,9025 4291,9032 4265,9037 4236,9039 4204,9039 4169,9036 4131,9030
 4091,9022 4048,9012 4005,9000 3951,8985 3901,8970 3855,8957 3815,8945 3781,8936
 3753,8928 3731,8923 3714,8919 3700,8916 3690,8915 3682,8914 3675,8914 3668,8913
 3660,8912 3650,8909 3638,8906 3622,8900 3601,8891 3576,8880 3545,8866 3508,8848
 3467,8827 3422,8802 3375,8775 3329,8746 3286,8718 3248,8692 3215,8668 3187,8647
 3165,8629 3148,8615 3135,8603 3125,8593 3118,8586 3113,8579 3109,8572 3105,8566
 3100,8559 3093,8550 3085,8539 3073,8526 3058,8509 3038,8488 3014,8463 2986,8434
 2953,8401 2917,8364 2880,8325 2843,8286 2809,8249 2777,8215 2750,8186 2728,8161
 2709,8142 2694,8126 2682,8115 2673,8106 2666,8101 2660,8096 2655,8092 2650,8089
 2645,8084 2639,8078 2631,8068 2620,8056 2608,8039 2592,8017 2574,7990 2552,7957
 2528,7919 2502,7876 2475,7830 2450,7783 2426,7738 2406,7697 2389,7660 2374,7629
 2363,7603 2355,7582 2348,7565 2343,7552 2340,7542 2338,7534 2336,7526 2335,7519
 2333,7510 2331,7499 2327,7486 2323,7468 2317,7446 2309,7419 2300,7385 2289,7346
 2277,7301 2263,7252 2250,7200 2237,7148 2226,7099 2216,7054 2208,7015 2201,6983
 2195,6956 2191,6935 2187,6919 2184,6907 2182,6898 2180,6891 2179,6885 2177,6879
 2176,6872 2175,6863 2173,6851 2172,6835 2170,6814 2168,6787 2166,6755 2164,6716
 2162,6671 2161,6622 2160,6570 2161,6518 2162,6469 2164,6424 2166,6385 2168,6353
 2169,6326 2171,6305 2172,6289 2173,6277 2174,6268 2174,6261 2175,6255 2176,6249
 2177,6242 2179,6233 2182,6221 2185,6205 2190,6184 2195,6157 2203,6125 2212,6086
 2223,6041 2236,5992 2250,5940 2264,5892 2279,5846 2292,5804 2305,5766 2316,5733
 2326,5706 2334,5683 2340,5664 2345,5650 2350,5638 2353,5629 2356,5621 2359,5614
 2362,5607 2365,5599 2369,5590 2375,5579 2382,5565 2390,5547 2401,5526 2415,5500
 2431,5469 2449,5434 2471,5395 2495,5353 2520,5310 2548,5264 2576,5221 2601,5183
 2623,5150 2643,5122 2658,5100 2671,5083 2681,5070 2689,5060 2695,5053 2699,5048
 2704,5044 2708,5040 2713,5035 2720,5028 2729,5020 2740,5008 2755,4993 2773,4973
 2796,4949 2823,4921 2854,4888 2888,4852 2925,4815 2962,4778 2998,4744 3031,4713
 3059,4686 3083,4663 3103,4645 3118,4630 3130,4619 3138,4610 3145,4603 3150,4598
 3154,4594 3158,4589 3163,4585 3170,4579 3180,4571 3193,4561 3210,4548 3232,4533
 3260,4513 3293,4491 3331,4466 3374,4438 3420,4410 3463,4385 3505,4361 3544,4339
 3579,4320 3610,4304 3636,4291 3657,4279 3675,4270 3689,4263 3700,4257 3709,4252
 3717,4248 3724,4245 3731,4242 3739,4238 3748,4235 3760,4230 3774,4225 3793,4218
 3816,4210 3843,4201 3876,4190 3914,4178 3956,4166 4002,4153 4050,4140 4102,4128
 4151,4117 4196,4108 4235,4102 4267,4096 4294,4092 4315,4090 4331,4088 4343,4087
 4352,4087 4359,4087 4365,4088 4371,4088 4378,4089 4387,4090 4399,4090 4415,4091
 4436,4091 4463,4092 4495,4092 4534,4092 4579,4093 4628,4094 4680,4095 4732,4097
 4781,4100 4826,4103 4865,4106 4898,4108 4925,4111 4946,4112 4962,4114 4975,4115
 4985,4116 4992,4117 4999,4118 5005,4118 5013,4120 5022,4121 5035,4124 5051,4127
 5072,4131 5098,4136 5130,4143 5168,4151 5212,4161 5260,4172 5310,4185 5360,4198
 5407,4212 5450,4224 5487,4235 5518,4245 5543,4253 5563,4259 5578,4264 5589,4268
 5598,4271 5604,4273 5610,4275 5616,4277 5622,4280 5630,4284 5641,4288 5656,4295
 5675,4304 5699,4315 5729,4329 5764,4345 5804,4364 5848,4386 5895,4410 5941,4435
 5985,4458 6025,4480 6059,4500 6088,4516 6112,4529 6131,4540 6146,4548 6158,4553
 6167,4558 6174,4561 6180,4564 6186,4567 6193,4571 6201,4576 6212,4583 6226,4593
 6244,4606 6265,4623 6292,4644 6323,4670 6358,4700 6396,4733 6435,4770 6474,4808
 6509,4844 6542,4878 6569,4908 6592,4933 6611,4954 6626,4971 6637,4984 6645,4994
 6651,5002 6656,5008 6660,5014 6664,5019 6668,5026 6674,5035 6681,5046 6690,5061
 6703,5081 6718,5106 6737,5136 6759,5172 6784,5214 6812,5260 6840,5310 6865,5357
 6889,5402 6911,5444 6929,5482 6945,5515 6959,5544 6970,5568 6978,5587 6985,5603
 6991,5616 6995,5626 6998,5635 7001,5644 7004,5652 7007,5661 7010,5672 7015,5685
 7020,5701 7026,5721 7034,5745 7044,5774 7055,5808 7068,5847 7081,5890 7096,5937
 7110,5985 7124,6037 7137,6085 7148,6128 7157,6166 7165,6196 7170,6221 7175,6239
 7178,6253 7181,6263 7183,6269 7184,6274 7185,6278 7186,6281 7186,6286 7187,6292
 7188,6302 7189,6316 7191,6334 7192,6359 7194,6389 7196,6427 7198,6470 7199,6518
 7200,6570 7200,6618 7198,6665 7197,6708 7195,6747 7193,6781 7192,6809 7190,6833
 7189,6853 7188,6868 7187,6881 7186,6891 7186,6900 7185,6908 7184,6915 7183,6924
 7181,6934 7179,6947 7176,6962 7173,6982 7168,7006 7162,7034 7154,7068 7146,7107
 7135,7150 7123,7197 7110,7245 7095,7297 7079,7345 7065,7389 7051,7426 7040,7458
 7030,7483 7023,7503 7016,7518 7011,7529 7008,7538 7004,7544 7001,7549 6998,7554
 6994,7560 6990,7567 6983,7578 6975,7592 6965,7611 6951,7635 6935,7664 6915,7699
 6893,7739 6867,7783 6840,7830 6812,7876 6784,7920 6759,7960 6737,7994 6718,8023
 6703,8047 6690,8066 6681,8081 6674,8093 6668,8102 6664,8109 6660,8115 6656,8121
 6651,8128 6645,8136 6637,8147 6626,8161 6611,8179 6592,8200 6569,8227 6542,8258
 6509,8293 6474,8331 6435,8370 6396,8409 6358,8444 6323,8477 6292,8504 6265,8527
 6244,8546 6226,8561 6212,8572 6201,8580 6193,8586 6186,8591 6180,8595 6174,8599
 6167,8603 6158,8609 6146,8616 6131,8625 6112,8638 6088,8653 6059,8672 6025,8694
 5985,8719 5941,8747 5895,8775 5848,8802 5804,8828 5764,8850 5729,8870 5699,8886
 5675,8900 5656,8910 5641,8918 5630,8925 5622,8929 5616,8933 5610,8936 5604,8939
 5598,8943 5589,8946 5578,8951 5563,8958 5543,8965 5518,8975 5487,8986 5450,9000
 5407,9014 5360,9030 5310,9045 5267,9057 5225,9067 5185,9075 5148,9079 5115,9080
 5085,9078 5058,9073 5035,9064 5014,9053 4996,9041 4980,9026 4965,9010 4952,8994
 4939,8977 4926,8962 4914,8947 4900,8934 4886,8923 4871,8916 4854,8913 4836,8915
 4816,8923 4794,8938 4771,8960 4748,8990 4724,9030 4701,9078 4680,9135 4668,9177
 4657,9222 4648,9269 4639,9316 4631,9364 4623,9412 4615,9459 4608,9505 4601,9550
 4594,9594 4586,9637 4579,9678 4571,9718 4563,9756 4555,9794 4547,9830 4539,9865
 4531,9900 4523,9934 4515,9968 4507,10001 4500,10034 4494,10068 4488,10101 4484,10135
 4480,10169 4477,10204 4476,10240 4477,10276 4480,10313 4485,10351 4493,10390
 4503,10429 4517,10469 4534,10509 4555,10549 4580,10588 4609,10626 4642,10663
 4680,10697 4723,10728 4770,10755 4819,10776 4870,10793 4923,10806 4977,10816
 5030,10822 5082,10826 5133,10827 5181,10826 5228,10823 5272,10819 5314,10813
 5353,10806 5390,10799 5424,10790 5457,10781 5487,10771 5517,10760 5544,10750
 5571,10738 5597,10727 5622,10715 5648,10702 5673,10690 5699,10676 5726,10662
 5754,10648 5784,10633 5816,10617 5850,10600 5886,10582 5926,10563 5968,10543
 6014,10522 6064,10499 6118,10474 6175,10448 6236,10420 6302,10390 6370,10358
 6442,10324 6517,10289 6594,10251 6672,10211 6750,10170 6831,10125 6909,10080
 6984,10036 7054,9992 7120,9950 7181,9910 7237,9873 7288,9838 7334,9806 7375,9777
 7411,9750 7443,9726 7471,9704 7495,9684 7517,9666 7535,9650 7551,9636 7566,9622
 7578,9609 7590,9597 7601,9585 7612,9573 7623,9560 7634,9547 7647,9533 7660,9517
 7675,9500 7692,9481 7712,9459 7733,9435 7758,9408 7785,9378 7815,9345 7848,9309
 7884,9269 7923,9226 7964,9179 8008,9130 8053,9077 8099,9023 8145,8967 8190,8910
 8242,8840 8290,8773 8333,8711 8371,8653 8404,8602 8432,8557 8455,8518 8473,8486
 8488,8461 8499,8440 8506,8425 8511,8414 8513,8407 8514,8403 8513,8401 8511,8400
 8509,8400 8506,8400 8503,8399 8500,8396 8498,8390 8497,8381 8496,8368 8498,8350
 8500,8326 8505,8296 8511,8258 8519,8213 8529,8160 8541,8099 8553,8030 8567,7954
 8581,7872 8595,7785 8605,7713 8615,7640 8623,7569 8631,7499 8637,7433 8643,7371
 8647,7313 8651,7259 8654,7209 8657,7165 8658,7124 8659,7088 8660,7055 8660,7026
 8659,7000 8659,6977 8658,6956 8656,6936 8655,6919 8653,6902 8651,6885 8649,6868
 8647,6851 8646,6833 8644,6813 8642,6791 8640,6766 8639,6739 8637,6708 8636,6673
 8635,6634 8635,6591 8634,6542 8634,6488 8634,6430 8634,6365 8635,6296 8636,6222
 8637,6145 8638,6063 8639,5980 8640,5895 8641,5807 8642,5721 8643,5639 8643,5563
 8644,5493 8644,5430 8645,5374 8645,5325 8645,5284 8645,5249 8644,5221 8644,5198
 8644,5181 8643,5169 8643,5161 8642,5156 8642,5154 8641,5153 8641,5155 8640,5156
 8639,5158 8638,5157 8638,5153 8637,5146 8637,5135 8636,5120 8636,5098 8636,5071
 8635,5036 8635,4994 8635,4943 8635,4884 8636,4816 8636,4739 8637,4652 8637,4558
 8638,4455 8639,4345 8640,4230 8641,4151 8642,4072 8644,3992 8648,3913 8652,3835
 8659,3759 8667,3684 8677,3611 8689,3540 8703,3472 8720,3407 8738,3344 8759,3284
 8781,3226 8806,3171 8833,3119 8861,3069 8891,3022 8923,2977 8956,2933 8991,2892
 9026,2853 9063,2815 9100,2779 9138,2743 9177,2709 9215,2676 9254,2644 9292,2612
 9330,2580 9367,2548 9404,2517 9439,2485 9473,2453 9505,2420 9535,2387 9563,2352
 9588,2317 9610,2280 9629,2243 9644,2203 9655,2163 9661,2120 9663,2076 9659,2030
 9649,1983 9634,1934 9611,1883 9581,1830 9544,1776 9499,1721 9446,1664 9383,1607
 9312,1549 9231,1490 9141,1433 9041,1376 8932,1320 8813,1266 8685,1215 8593,1182
 8496,1151 8397,1121 8295,1092 8192,1065 8086,1039 7979,1014 7872,990 7764,968
 7656,946 7548,926 7440,906 7333,887 7227,869 7122,851 7018,835 6916,818 6814,803
 6715,787 6617,773 6520,758 6426,744 6333,731 6242,717 6152,704 6064,692 5978,679
 5893,667 5810,655 5728,643 5647,631 5568,620 5490,609 5414,598 5338,587 5263,576
 5189,566 5116,555 5044,545 4972,535 4900,526 4829,516 4758,507 4687,499 4617,490
 4546,482 4475,475 4403,468 4331,461 4259,455 4186,449 4112,444 4037,440 3961,436
 3884,433 3806,431 3727,430 3647,429 3565,430 3481,432 3396,435 3310,439 3222,444
 3132,451 3040,459 2947,469 2852,480 2755,494 2657,509 2557,525 2456,544 2353,565
 2249,589 2143,614 2037,642 1929,673 1821,706 1712,742 1604,780 1495,822 1387,866
 1279,913 1173,963 1068,1016 966,1073 866,1132 768,1195 675,1260 574,1337 479,1418
 389,1501 305,1586 227,1673 154,1761 87,1849 25,1937 -32,2025 -83,2113 -129,2200
 -170,2285 -206,2370 -238,2453 -265,2534 -288,2614 -307,2692 -322,2768 -333,2842
 -341,2914 -345,2984 -347,3052 -346,3119 -342,3184 -335,3247 -327,3308 -316,3368
 -303,3426 -288,3483 -272,3539 -254,3593 -234,3647 -214,3700 -192,3752 -169,3803
 -146,3854 -122,3904 -97,3955 -71,4005 -45,4055 -19,4106 7,4157 34,4209 60,4261
 87,4314 113,4368 140,4424 166,4480 191,4538 216,4598 241,4659 265,4722 289,4787
 312,4854 334,4924 356,4995 377,5069 396,5145 416,5224 434,5306 451,5390 467,5476
 483,5566 497,5657 511,5752 524,5848 536,5947 547,6048 557,6151 566,6255 575,6361
 584,6468 592,6576 600,6684 607,6792 615,6900 622,7006" fill="#ffffff"/>
<!-- Circle -->
<circle cx="4680" cy="6615" r="3872"
	stroke="#000000" stroke-width="8px"/>
<!-- Circle -->
<circle cx="4664" cy="6573" r="1510"
	stroke="#000000" stroke-width="8px"/>
<!-- Ellipse -->
<ellipse cx="4664" cy="6573" rx="1004" ry="1007"
	stroke="#000000" stroke-width="8px"/>
<!-- Circle -->
<circle cx="4664" cy="6573" r="2012"
	stroke="#000000" stroke-width="8px"/>
<!-- Circle -->
<circle cx="4680" cy="6570" r="542"
	stroke="#000000" stroke-width="8px"/>
<!-- Circle -->
<circle cx="4680" cy="6592" r="2498"
	stroke="#000000" stroke-width="8px"/>
<!-- Line -->
<polyline points=" 4661,9341 4664,6573"
	stroke="#000000" stroke-width="8px"/>
<!-- Line -->
<polyline points=" 5377,9248 4664,6573"
	stroke="#000000" stroke-width="8px"/>
<!-- Line -->
<polyline points=" 6047,8973 4664,6573"
	stroke="#000000" stroke-width="8px"/>
<!-- Line -->
<polyline points=" 6621,8533 4664,6573"
	stroke="#000000" stroke-width="8px"/>
<!-- Line -->
<polyline points=" 7058,7958 4664,6573"
	stroke="#000000" stroke-width="8px"/>
<!-- Line -->
<polyline points=" 7339,7292 4664,6573"
	stroke="#000000" stroke-width="8px"/>
<!-- Line -->
<polyline points=" 7339,5861 4664,6573"
	stroke="#000000" stroke-width="8px"/>
<!-- Line -->
<polyline points=" 7064,5190 4664,6573"
	stroke="#000000" stroke-width="8px"/>
<!-- Line -->
<polyline points=" 6624,4617 4664,6573"
	stroke="#000000" stroke-width="8px"/>
<!-- Line -->
<polyline points=" 6050,4177 4664,6573"
	stroke="#000000" stroke-width="8px"/>
<!-- Line -->
<polyline points=" 3949,3899 4664,6573"
	stroke="#000000" stroke-width="8px"/>
<!-- Line -->
<polyline points=" 3282,4174 4664,6573"
	stroke="#000000" stroke-width="8px"/>
<!-- Line -->
<polyline points=" 1896,6571 4664,6573"
	stroke="#000000" stroke-width="8px"/>
<!-- Line -->
<polyline points=" 3944,9242 4664,6569"
	stroke="#000000" stroke-width="8px"/>
<!-- Line -->
<polyline points=" 3278,8960 4665,6565"
	stroke="#000000" stroke-width="8px"/>
<!-- Line -->
<polyline points=" 2707,8516 4667,6561"
	stroke="#000000" stroke-width="8px"/>
<!-- Line -->
<polyline points=" 2271,7939 4670,6558"
	stroke="#000000" stroke-width="8px"/>
<!-- Line -->
<polyline points=" 1999,7269 4673,6556"
	stroke="#000000" stroke-width="8px"/>
<!-- Line -->
<polyline points=" 5380,3895 4664,6569"
	stroke="#000000" stroke-width="8px"/>
<!-- Line -->
<polyline points=" 4665,3801 4664,6569"
	stroke="#000000" stroke-width="8px"/>
<!-- Line -->
<polyline points=" 1994,5855 4667,6573"
	stroke="#000000" stroke-width="8px"/>
<!-- Line -->
<polyline points=" 2274,5189 4670,6574"
	stroke="#000000" stroke-width="8px"/>
<!-- Line -->
<polyline points=" 2717,4618 4673,6576"
	stroke="#000000" stroke-width="8px"/>
<!-- Line -->
<polyline points=" 7432,6576 4664,6573"
	stroke="#000000" stroke-width="8px"/>
<!-- Text -->
<text xml:space="preserve" x="1530" y="5895" fill="#000000" font-family="Times" font-style="normal" font-weight="normal" font-size="396" text-anchor="middle">VII</text>
<!-- Text -->
<text xml:space="preserve" x="7891" y="7650" fill="#000000" font-family="Times" font-style="normal" font-weight="normal" font-size="396" text-anchor="middle">VII</text>
<!-- Text -->
<text xml:space="preserve" x="7556" y="8424" fill="#000000" font-family="Times" font-style="normal" font-weight="normal" font-size="396" text-anchor="middle">VIII</text>
<!-- Text -->
<text xml:space="preserve" x="7003" y="9061" fill="#000000" font-family="Times" font-style="normal" font-weight="normal" font-size="396" text-anchor="middle">IX</text>
<!-- Text -->
<text xml:space="preserve" x="6320" y="9558" fill="#000000" font-family="Times" font-style="normal" font-weight="normal" font-size="396" text-anchor="middle">X</text>
<!-- Text -->
<text xml:space="preserve" x="5574" y="9920" fill="#000000" font-family="Times" font-style="normal" font-weight="normal" font-size="396" text-anchor="middle">XI</text>
<!-- Text -->
<text xml:space="preserve" x="4702" y="10028" fill="#000000" font-family="Times" font-style="normal" font-weight="normal" font-size="396" text-anchor="middle">XII</text>
<!-- Text -->
<text xml:space="preserve" x="3800" y="9913" fill="#000000" font-family="Times" font-style="normal" font-weight="normal" font-size="396" text-anchor="middle">I</text>
<!-- Text -->
<text xml:space="preserve" x="3075" y="9571" fill="#000000" font-family="Times" font-style="normal" font-weight="normal" font-size="396" text-anchor="middle">II</text>
<!-- Text -->
<text xml:space="preserve" x="2432" y="9092" fill="#000000" font-family="Times" font-style="normal" font-weight="normal" font-size="396" text-anchor="middle">III</text>
<!-- Text -->
<text xml:space="preserve" x="1879" y="8451" fill="#000000" font-family="Times" font-style="normal" font-weight="normal" font-size="396" text-anchor="middle">IV</text>
<!-- Text -->
<text xml:space="preserve" x="1569" y="7557" fill="#000000" font-family="Times" font-style="normal" font-weight="normal" font-size="396" text-anchor="middle">V</text>
<!-- Text -->
<text xml:space="preserve" x="1414" y="6710" fill="#000000" font-family="Times" font-style="normal" font-weight="normal" font-size="396" text-anchor="middle">VI</text>
<!-- Text -->
<text xml:space="preserve" x="1821" y="5209" fill="#000000" font-family="Times" font-style="normal" font-weight="normal" font-size="396" text-anchor="middle">VIII</text>
<!-- Text -->
<text xml:space="preserve" x="2287" y="4541" fill="#000000" font-family="Times" font-style="normal" font-weight="normal" font-size="396" text-anchor="middle">IX</text>
<!-- Text -->
<text xml:space="preserve" x="2977" y="4013" fill="#000000" font-family="Times" font-style="normal" font-weight="normal" font-size="396" text-anchor="middle">X</text>
<!-- Text -->
<text xml:space="preserve" x="3754" y="3652" fill="#000000" font-family="Times" font-style="normal" font-weight="normal" font-size="396" text-anchor="middle">XI</text>
<!-- Text -->
<text xml:space="preserve" x="4661" y="3502" fill="#000000" font-family="Times" font-style="normal" font-weight="normal" font-size="396" text-anchor="middle">XII</text>
<!-- Text -->
<text xml:space="preserve" x="5515" y="3647" fill="#000000" font-family="Times" font-style="normal" font-weight="normal" font-size="396" text-anchor="middle">I</text>
<!-- Text -->
<text xml:space="preserve" x="6240" y="3935" fill="#000000" font-family="Times" font-style="normal" font-weight="normal" font-size="396" text-anchor="middle">II</text>
<!-- Text -->
<text xml:space="preserve" x="6960" y="4456" fill="#000000" font-family="Times" font-style="normal" font-weight="normal" font-size="396" text-anchor="middle">III</text>
<!-- Text -->
<text xml:space="preserve" x="7500" y="5162" fill="#000000" font-family="Times" font-style="normal" font-weight="normal" font-size="396" text-anchor="middle">IV</text>
<!-- Text -->
<text xml:space="preserve" x="7765" y="6021" fill="#000000" font-family="Times" font-style="normal" font-weight="normal" font-size="396" text-anchor="middle">V</text>
<!-- Text -->
<text xml:space="preserve" x="7819" y="6772" fill="#000000" font-family="Times" font-style="normal" font-weight="normal" font-size="396" text-anchor="middle">VI</text>
</g>
</svg>
